<?xml version="1.0" encoding="utf-8"?>
<!-- Generator: Adobe Illustrator 16.0.2, SVG Export Plug-In . SVG Version: 6.00 Build 0)  -->
<!DOCTYPE svg PUBLIC "-//W3C//DTD SVG 1.1//EN" "http://www.w3.org/Graphics/SVG/1.1/DTD/svg11.dtd">
<svg version="1.1" id="Layer_1" xmlns="http://www.w3.org/2000/svg" xmlns:xlink="http://www.w3.org/1999/xlink" x="0px" y="0px"
	 width="200px" height="200px" viewBox="0 0 200 200" enable-background="new 0 0 200 200" xml:space="preserve">
<g>
	<g>
		<g>
			<rect x="3.524" y="140.85" fill="#7394C7" width="122.254" height="6.309"/>
			<rect x="57.435" y="159.254" fill="#7394C7" width="138.847" height="5.943"/>
		</g>
		<path fill="#372F81" d="M73.474,77.826c0,0,4.139-8.16,8.773-8.16c3.918,0,4.712,6.62,7.833,6.62c4.366,0,5.149-6.714,9.617-6.714
			c4.466,0,5.45,6.766,9.812,6.766c3.117,0,3.921-6.627,7.834-6.627c4.634,0,8.773,8.163,8.773,8.163
			c11.954,20.429,28.779,46.018,50.26,60.738c3.613-9.246,5.618-19.305,5.618-29.83c0-45.34-36.752-82.095-82.091-82.095
			c-45.333,0-82.093,36.754-82.093,82.095c0,7.813,1.117,15.361,3.159,22.525C41.716,120.523,66.589,91.38,73.474,77.826z"/>
	</g>
</g>
</svg>
